<svg xmlns="http://www.w3.org/2000/svg" viewBox="0 0 92 92"><defs><style>.a{fill:#754f8b;}.b{fill:#fff;}</style></defs><title>GC_message_interim_A_icon</title><circle class="a" cx="46" cy="46" r="46"/><rect class="b" x="13.5" y="22.73" width="65" height="46" rx="9.03" ry="9.03"/><polygon class="b" points="60.7 84.54 60.85 41.89 28.07 41.89 60.7 84.54"/><path class="a" d="M35.49,59v.29H27.4a1.72,1.72,0,0,1-1.74-1.73v-3a3.31,3.31,0,0,1,.73-2.1,3.27,3.27,0,0,1,1.87-1.23l2-.51a6.14,6.14,0,0,0,6.21.58,6.05,6.05,0,0,0-.94,3.26Zm-1.73-8.09a5.05,5.05,0,1,1,3.57-1.48A4.87,4.87,0,0,1,33.76,50.89ZM57,49.52a5,5,0,0,1,2.89,1.84,5.1,5.1,0,0,1,1.09,3.22V59a2.58,2.58,0,0,1-2.6,2.6H39.25a2.58,2.58,0,0,1-2.6-2.6v-4.4a5.15,5.15,0,0,1,1.08-3.22,5,5,0,0,1,2.89-1.84l2.89-.73a9.08,9.08,0,0,0,5,1.74,8.4,8.4,0,0,0,5.56-1.74ZM48.79,33.83a7.39,7.39,0,0,0-3.83,1,7.61,7.61,0,1,0,10.4,10.4,7.7,7.7,0,0,0,0-7.66,7.55,7.55,0,0,0-6.57-3.76Zm15,17.06a5.05,5.05,0,1,1,3.58-1.48A4.87,4.87,0,0,1,63.82,50.89Zm5.49.36a3.29,3.29,0,0,1,1.88,1.23,3.36,3.36,0,0,1,.72,2.1v3a1.71,1.71,0,0,1-1.73,1.73h-8.1V54.58a6.5,6.5,0,0,0-.93-3.33,6,6,0,0,0,3,.65,5.53,5.53,0,0,0,3.18-1.16Z" transform="translate(-2.79 -2.79)"/></svg>